<?xml version="1.0" encoding="utf-8"?>
<!-- Generator: Adobe Illustrator 14.0.0, SVG Export Plug-In . SVG Version: 6.00 Build 43363)  -->
<!DOCTYPE svg PUBLIC "-//W3C//DTD SVG 1.1//EN" "http://www.w3.org/Graphics/SVG/1.1/DTD/svg11.dtd">
<svg version="1.1" id="Layer_1" xmlns="http://www.w3.org/2000/svg" xmlns:xlink="http://www.w3.org/1999/xlink" x="0px" y="0px"
	 width="577.959px" height="452.474px" viewBox="0 0 577.959 452.474" enable-background="new 0 0 577.959 452.474"
	 xml:space="preserve">
<rect fill="#FFFFFF" width="577.959" height="452.474"/>
<polygon fill="#030303" points="377.392,179.9 226.392,179.9 226.392,345.787 326.423,347.9 368.704,327.825 421.298,300.353 
	424.392,261.258 "/>
<rect x="182.392" y="288.9" fill="#010101" width="63" height="31"/>
<circle fill="none" stroke="#010101" stroke-width="32" cx="290.293" cy="186.3" r="160.999"/>
<g>
	<path fill="#030303" d="M8.876,433.47V402.58h11.589c2.36,0,4.253,0.313,5.679,0.938c1.426,0.626,2.542,1.588,3.351,2.887
		c0.808,1.3,1.211,2.659,1.211,4.078c0,1.32-0.358,2.563-1.075,3.729c-0.716,1.167-1.798,2.107-3.245,2.824
		c1.868,0.548,3.305,1.481,4.309,2.803c1.004,1.32,1.507,2.879,1.507,4.677c0,1.447-0.305,2.792-0.917,4.036
		c-0.61,1.242-1.366,2.201-2.265,2.875c-0.899,0.674-2.026,1.184-3.382,1.528c-1.355,0.345-3.017,0.517-4.983,0.517H8.876z
		 M12.964,415.559h6.679c1.813,0,3.111-0.119,3.898-0.357c1.039-0.31,1.823-0.822,2.349-1.539c0.527-0.716,0.791-1.614,0.791-2.696
		c0-1.025-0.246-1.928-0.738-2.708c-0.492-0.779-1.194-1.313-2.107-1.602c-0.914-0.287-2.479-0.433-4.699-0.433h-6.174V415.559z
		 M12.964,429.824h7.691c1.32,0,2.247-0.049,2.781-0.146c0.941-0.169,1.728-0.45,2.36-0.843c0.632-0.394,1.152-0.966,1.56-1.718
		c0.407-0.751,0.611-1.619,0.611-2.603c0-1.151-0.295-2.152-0.885-3.002c-0.59-0.85-1.409-1.446-2.455-1.792
		c-1.046-0.344-2.553-0.516-4.52-0.516h-7.143V429.824z"/>
	<path fill="#030303" d="M37.259,433.47V402.58h3.792v30.891H37.259z"/>
	<path fill="#030303" d="M61.532,430.709c-1.405,1.194-2.757,2.037-4.056,2.529c-1.3,0.49-2.694,0.736-4.183,0.736
		c-2.458,0-4.348-0.601-5.668-1.801c-1.32-1.202-1.98-2.736-1.98-4.604c0-1.096,0.25-2.097,0.748-3.003
		c0.499-0.905,1.152-1.633,1.959-2.181s1.717-0.962,2.729-1.243c0.745-0.196,1.868-0.387,3.372-0.568
		c3.062-0.366,5.317-0.801,6.764-1.307c0.014-0.52,0.021-0.85,0.021-0.991c0-1.544-0.358-2.633-1.074-3.266
		c-0.97-0.856-2.41-1.285-4.32-1.285c-1.784,0-3.101,0.313-3.951,0.938c-0.85,0.625-1.478,1.731-1.885,3.319l-3.708-0.506
		c0.337-1.588,0.892-2.869,1.665-3.846c0.772-0.976,1.889-1.728,3.35-2.255c1.461-0.526,3.153-0.79,5.078-0.79
		c1.91,0,3.462,0.225,4.657,0.675c1.194,0.449,2.072,1.015,2.634,1.696c0.562,0.681,0.955,1.541,1.18,2.581
		c0.126,0.646,0.189,1.812,0.189,3.497v5.057c0,3.526,0.081,5.757,0.242,6.691c0.162,0.934,0.481,1.829,0.959,2.687h-3.961
		C61.897,432.683,61.645,431.762,61.532,430.709z M61.216,422.239c-1.377,0.563-3.442,1.039-6.195,1.433
		c-1.559,0.226-2.662,0.479-3.308,0.759c-0.646,0.281-1.145,0.692-1.496,1.232c-0.351,0.541-0.527,1.142-0.527,1.802
		c0,1.011,0.383,1.854,1.148,2.528c0.766,0.674,1.886,1.012,3.361,1.012c1.461,0,2.76-0.319,3.898-0.959
		c1.138-0.639,1.974-1.513,2.508-2.623c0.407-0.857,0.611-2.121,0.611-3.792V422.239z"/>
	<path fill="#030303" d="M85.532,425.273l3.729,0.484c-0.408,2.571-1.45,4.583-3.128,6.037c-1.679,1.454-3.741,2.181-6.185,2.181
		c-3.063,0-5.524-1-7.385-3.003c-1.862-2.001-2.792-4.87-2.792-8.606c0-2.417,0.4-4.53,1.201-6.343s2.02-3.172,3.656-4.077
		c1.636-0.906,3.417-1.359,5.341-1.359c2.43,0,4.417,0.614,5.963,1.844c1.545,1.229,2.536,2.975,2.971,5.236l-3.688,0.569
		c-0.352-1.503-0.973-2.635-1.865-3.393c-0.892-0.759-1.97-1.138-3.234-1.138c-1.911,0-3.463,0.685-4.657,2.054
		c-1.194,1.37-1.791,3.537-1.791,6.501c0,3.006,0.576,5.19,1.728,6.553s2.655,2.044,4.509,2.044c1.489,0,2.732-0.457,3.729-1.37
		C84.633,428.575,85.265,427.17,85.532,425.273z"/>
	<path fill="#030303" d="M92.528,433.47V402.58h3.793v17.615l8.976-9.103h4.91l-8.555,8.302l9.418,14.076h-4.678l-7.396-11.441
		l-2.676,2.569v8.872H92.528z"/>
	<path fill="#030303" d="M126.431,433.47V402.58h6.153l7.312,21.872c0.674,2.036,1.166,3.562,1.475,4.572
		c0.351-1.124,0.899-2.774,1.644-4.952l7.396-21.492h5.5v30.891h-3.94v-25.854l-8.976,25.854h-3.688l-8.934-26.297v26.297H126.431z"
		/>
	<path fill="#030303" d="M177.339,426.263l3.919,0.485c-0.618,2.289-1.763,4.066-3.435,5.33c-1.672,1.265-3.807,1.896-6.405,1.896
		c-3.273,0-5.869-1.007-7.786-3.023c-1.918-2.016-2.876-4.843-2.876-8.481c0-3.764,0.969-6.687,2.908-8.765
		c1.938-2.079,4.453-3.119,7.543-3.119c2.992,0,5.437,1.019,7.333,3.055c1.896,2.038,2.844,4.903,2.844,8.598
		c0,0.225-0.007,0.563-0.021,1.011h-16.688c0.14,2.459,0.835,4.342,2.086,5.647c1.25,1.308,2.809,1.96,4.678,1.96
		c1.391,0,2.578-0.365,3.561-1.096C175.983,429.031,176.763,427.865,177.339,426.263z M164.886,420.131h12.495
		c-0.168-1.882-0.646-3.294-1.433-4.235c-1.208-1.461-2.774-2.19-4.699-2.19c-1.742,0-3.207,0.583-4.394,1.749
		C165.669,416.62,165.012,418.179,164.886,420.131z"/>
	<path fill="#030303" d="M184.503,426.79l3.75-0.59c0.211,1.503,0.797,2.656,1.76,3.456c0.962,0.802,2.307,1.201,4.035,1.201
		c1.741,0,3.034-0.354,3.877-1.064c0.843-0.708,1.264-1.541,1.264-2.497c0-0.856-0.373-1.531-1.117-2.022
		c-0.52-0.338-1.812-0.766-3.877-1.285c-2.782-0.703-4.71-1.31-5.784-1.823c-1.075-0.513-1.89-1.222-2.444-2.127
		c-0.555-0.907-0.833-1.907-0.833-3.003c0-0.998,0.228-1.921,0.685-2.771c0.457-0.851,1.078-1.557,1.865-2.118
		c0.59-0.436,1.394-0.804,2.413-1.106c1.018-0.302,2.11-0.453,3.276-0.453c1.755,0,3.298,0.253,4.625,0.759
		c1.328,0.506,2.308,1.19,2.94,2.054c0.632,0.865,1.067,2.021,1.306,3.467l-3.708,0.506c-0.168-1.151-0.656-2.052-1.464-2.697
		c-0.808-0.646-1.949-0.969-3.424-0.969c-1.742,0-2.985,0.288-3.73,0.863c-0.745,0.576-1.117,1.25-1.117,2.022
		c0,0.492,0.155,0.935,0.464,1.328c0.309,0.407,0.793,0.745,1.454,1.012c0.379,0.14,1.496,0.463,3.351,0.969
		c2.683,0.717,4.555,1.304,5.615,1.76s1.893,1.12,2.497,1.991c0.604,0.871,0.906,1.952,0.906,3.245c0,1.264-0.369,2.455-1.106,3.571
		c-0.738,1.117-1.802,1.98-3.192,2.592c-1.391,0.61-2.964,0.916-4.72,0.916c-2.908,0-5.124-0.604-6.648-1.812
		C185.897,430.955,184.924,429.165,184.503,426.79z"/>
	<path fill="#030303" d="M222.199,430.709c-1.405,1.194-2.757,2.037-4.057,2.529c-1.299,0.49-2.694,0.736-4.182,0.736
		c-2.458,0-4.348-0.601-5.668-1.801c-1.32-1.202-1.98-2.736-1.98-4.604c0-1.096,0.25-2.097,0.748-3.003
		c0.499-0.905,1.152-1.633,1.96-2.181c0.808-0.548,1.717-0.962,2.729-1.243c0.744-0.196,1.868-0.387,3.371-0.568
		c3.062-0.366,5.317-0.801,6.764-1.307c0.014-0.52,0.021-0.85,0.021-0.991c0-1.544-0.358-2.633-1.074-3.266
		c-0.969-0.856-2.41-1.285-4.32-1.285c-1.784,0-3.101,0.313-3.951,0.938c-0.85,0.625-1.479,1.731-1.886,3.319l-3.708-0.506
		c0.337-1.588,0.892-2.869,1.665-3.846c0.772-0.976,1.889-1.728,3.35-2.255c1.461-0.526,3.153-0.79,5.078-0.79
		c1.91,0,3.462,0.225,4.657,0.675c1.194,0.449,2.072,1.015,2.634,1.696c0.562,0.681,0.955,1.541,1.18,2.581
		c0.126,0.646,0.189,1.812,0.189,3.497v5.057c0,3.526,0.081,5.757,0.243,6.691c0.161,0.934,0.481,1.829,0.958,2.687h-3.961
		C222.564,432.683,222.311,431.762,222.199,430.709z M221.883,422.239c-1.377,0.563-3.442,1.039-6.195,1.433
		c-1.559,0.226-2.662,0.479-3.308,0.759c-0.646,0.281-1.145,0.692-1.496,1.232c-0.351,0.541-0.527,1.142-0.527,1.802
		c0,1.011,0.383,1.854,1.149,2.528c0.765,0.674,1.885,1.012,3.36,1.012c1.461,0,2.76-0.319,3.898-0.959
		c1.138-0.639,1.973-1.513,2.507-2.623c0.407-0.857,0.611-2.121,0.611-3.792V422.239z"/>
	<path fill="#030303" d="M244.134,433.47V402.58h13.696c2.753,0,4.846,0.277,6.279,0.832c1.433,0.556,2.577,1.535,3.435,2.94
		c0.856,1.404,1.286,2.957,1.286,4.656c0,2.191-0.71,4.038-2.129,5.542c-1.419,1.502-3.611,2.458-6.574,2.865
		c1.082,0.52,1.903,1.032,2.465,1.538c1.193,1.096,2.325,2.465,3.392,4.109l5.374,8.407h-5.142l-4.088-6.428
		c-1.194-1.854-2.177-3.272-2.95-4.255c-0.773-0.984-1.465-1.673-2.075-2.066c-0.612-0.393-1.233-0.666-1.865-0.821
		c-0.463-0.098-1.222-0.146-2.275-0.146h-4.741v13.717H244.134z M248.222,416.213h8.787c1.868,0,3.329-0.193,4.383-0.58
		s1.854-1.004,2.402-1.854c0.548-0.85,0.822-1.773,0.822-2.771c0-1.462-0.53-2.662-1.591-3.604
		c-1.061-0.941-2.736-1.412-5.025-1.412h-9.777V416.213z"/>
	<path fill="#030303" d="M290.067,426.263l3.92,0.485c-0.619,2.289-1.764,4.066-3.434,5.33c-1.672,1.265-3.809,1.896-6.406,1.896
		c-3.273,0-5.868-1.007-7.787-3.023c-1.917-2.016-2.875-4.843-2.875-8.481c0-3.764,0.97-6.687,2.908-8.765
		c1.938-2.079,4.451-3.119,7.543-3.119c2.992,0,5.437,1.019,7.332,3.055c1.897,2.038,2.845,4.903,2.845,8.598
		c0,0.225-0.006,0.563-0.02,1.011h-16.688c0.139,2.459,0.835,4.342,2.085,5.647c1.251,1.308,2.81,1.96,4.677,1.96
		c1.393,0,2.578-0.365,3.562-1.096C288.713,429.031,289.491,427.865,290.067,426.263z M277.615,420.131h12.495
		c-0.168-1.882-0.646-3.294-1.433-4.235c-1.21-1.461-2.775-2.19-4.698-2.19c-1.743,0-3.207,0.583-4.395,1.749
		C278.396,416.62,277.742,418.179,277.615,420.131z"/>
	<path fill="#030303" d="M297.231,426.79l3.752-0.59c0.209,1.503,0.796,2.656,1.758,3.456c0.963,0.802,2.307,1.201,4.036,1.201
		c1.74,0,3.034-0.354,3.877-1.064c0.843-0.708,1.265-1.541,1.265-2.497c0-0.856-0.373-1.531-1.118-2.022
		c-0.519-0.338-1.811-0.766-3.877-1.285c-2.781-0.703-4.71-1.31-5.784-1.823c-1.074-0.513-1.89-1.222-2.444-2.127
		c-0.555-0.907-0.831-1.907-0.831-3.003c0-0.998,0.228-1.921,0.685-2.771c0.456-0.851,1.078-1.557,1.864-2.118
		c0.59-0.436,1.394-0.804,2.412-1.106c1.02-0.302,2.111-0.453,3.277-0.453c1.757,0,3.297,0.253,4.624,0.759
		c1.329,0.506,2.31,1.19,2.94,2.054c0.633,0.865,1.068,2.021,1.308,3.467l-3.709,0.506c-0.169-1.151-0.658-2.052-1.466-2.697
		s-1.948-0.969-3.423-0.969c-1.742,0-2.985,0.288-3.729,0.863c-0.745,0.576-1.117,1.25-1.117,2.022c0,0.492,0.154,0.935,0.464,1.328
		c0.308,0.407,0.792,0.745,1.453,1.012c0.38,0.14,1.497,0.463,3.352,0.969c2.682,0.717,4.553,1.304,5.613,1.76
		s1.894,1.12,2.497,1.991c0.604,0.871,0.908,1.952,0.908,3.245c0,1.264-0.371,2.455-1.107,3.571
		c-0.737,1.117-1.802,1.98-3.191,2.592c-1.392,0.61-2.966,0.916-4.72,0.916c-2.909,0-5.126-0.604-6.648-1.812
		C298.625,430.955,297.653,429.165,297.231,426.79z"/>
	<path fill="#030303" d="M335.644,426.263l3.92,0.485c-0.619,2.289-1.764,4.066-3.434,5.33c-1.672,1.265-3.809,1.896-6.406,1.896
		c-3.273,0-5.868-1.007-7.787-3.023c-1.917-2.016-2.875-4.843-2.875-8.481c0-3.764,0.97-6.687,2.908-8.765
		c1.938-2.079,4.451-3.119,7.543-3.119c2.992,0,5.437,1.019,7.332,3.055c1.897,2.038,2.845,4.903,2.845,8.598
		c0,0.225-0.006,0.563-0.02,1.011h-16.688c0.139,2.459,0.835,4.342,2.085,5.647c1.251,1.308,2.81,1.96,4.677,1.96
		c1.393,0,2.578-0.365,3.562-1.096C334.289,429.031,335.067,427.865,335.644,426.263z M323.191,420.131h12.495
		c-0.169-1.882-0.646-3.294-1.433-4.235c-1.21-1.461-2.775-2.19-4.698-2.19c-1.743,0-3.207,0.583-4.395,1.749
		C323.973,416.62,323.318,418.179,323.191,420.131z"/>
	<path fill="#030303" d="M358.928,430.709c-1.405,1.194-2.758,2.037-4.058,2.529c-1.3,0.49-2.693,0.736-4.181,0.736
		c-2.46,0-4.35-0.601-5.669-1.801c-1.321-1.202-1.981-2.736-1.981-4.604c0-1.096,0.249-2.097,0.749-3.003
		c0.497-0.905,1.15-1.633,1.96-2.181c0.808-0.548,1.717-0.962,2.729-1.243c0.744-0.196,1.867-0.387,3.371-0.568
		c3.062-0.366,5.315-0.801,6.765-1.307c0.014-0.52,0.02-0.85,0.02-0.991c0-1.544-0.357-2.633-1.074-3.266
		c-0.969-0.856-2.409-1.285-4.32-1.285c-1.784,0-3.101,0.313-3.949,0.938c-0.852,0.625-1.48,1.731-1.886,3.319l-3.709-0.506
		c0.337-1.588,0.892-2.869,1.664-3.846c0.772-0.976,1.89-1.728,3.35-2.255c1.461-0.526,3.154-0.79,5.079-0.79
		c1.909,0,3.462,0.225,4.657,0.675c1.193,0.449,2.071,1.015,2.632,1.696c0.563,0.681,0.957,1.541,1.181,2.581
		c0.127,0.646,0.19,1.812,0.19,3.497v5.057c0,3.526,0.08,5.757,0.242,6.691c0.161,0.934,0.48,1.829,0.959,2.687h-3.962
		C359.292,432.683,359.039,431.762,358.928,430.709z M358.612,422.239c-1.379,0.563-3.442,1.039-6.196,1.433
		c-1.559,0.226-2.662,0.479-3.309,0.759c-0.645,0.281-1.145,0.692-1.495,1.232c-0.352,0.541-0.527,1.142-0.527,1.802
		c0,1.011,0.382,1.854,1.148,2.528c0.766,0.674,1.886,1.012,3.361,1.012c1.46,0,2.76-0.319,3.898-0.959
		c1.137-0.639,1.972-1.513,2.507-2.623c0.408-0.857,0.612-2.121,0.612-3.792V422.239z"/>
	<path fill="#030303" d="M368.283,433.47v-22.378h3.412v3.392c0.87-1.586,1.676-2.633,2.413-3.139s1.549-0.759,2.435-0.759
		c1.278,0,2.577,0.408,3.896,1.223l-1.306,3.518c-0.927-0.547-1.854-0.821-2.781-0.821c-0.829,0-1.574,0.25-2.234,0.748
		c-0.66,0.499-1.131,1.191-1.411,2.076c-0.422,1.349-0.631,2.823-0.631,4.425v11.716H368.283z"/>
	<path fill="#030303" d="M397.296,425.273l3.73,0.484c-0.408,2.571-1.45,4.583-3.128,6.037c-1.681,1.454-3.74,2.181-6.185,2.181
		c-3.063,0-5.525-1-7.386-3.003c-1.862-2.001-2.793-4.87-2.793-8.606c0-2.417,0.401-4.53,1.201-6.343
		c0.802-1.813,2.02-3.172,3.656-4.077c1.637-0.906,3.416-1.359,5.341-1.359c2.431,0,4.418,0.614,5.965,1.844
		c1.545,1.229,2.534,2.975,2.97,5.236l-3.688,0.569c-0.351-1.503-0.972-2.635-1.864-3.393c-0.894-0.759-1.97-1.138-3.233-1.138
		c-1.911,0-3.464,0.685-4.657,2.054c-1.194,1.37-1.792,3.537-1.792,6.501c0,3.006,0.576,5.19,1.729,6.553
		c1.15,1.362,2.653,2.044,4.508,2.044c1.489,0,2.732-0.457,3.73-1.37C396.398,428.575,397.029,427.17,397.296,425.273z"/>
	<path fill="#030303" d="M404.272,433.47V402.58h3.793v11.083c1.77-2.051,4.002-3.076,6.699-3.076c1.658,0,3.097,0.326,4.32,0.98
		c1.221,0.652,2.095,1.555,2.622,2.708c0.527,1.151,0.79,2.822,0.79,5.014v14.182h-3.793v-14.182c0-1.896-0.409-3.276-1.232-4.14
		c-0.821-0.864-1.983-1.296-3.487-1.296c-1.123,0-2.18,0.291-3.171,0.874c-0.99,0.583-1.696,1.373-2.117,2.37
		c-0.422,0.998-0.631,2.375-0.631,4.13v12.243H404.272z"/>
	<path fill="#030303" d="M440.957,433.47V402.58h20.84v3.645h-16.753v9.567h14.497v3.645h-14.497v14.034H440.957z"/>
	<path fill="#030303" d="M481.224,430.709c-1.405,1.194-2.758,2.037-4.058,2.529c-1.3,0.49-2.693,0.736-4.181,0.736
		c-2.46,0-4.35-0.601-5.669-1.801c-1.32-1.202-1.981-2.736-1.981-4.604c0-1.096,0.249-2.097,0.749-3.003
		c0.498-0.905,1.15-1.633,1.96-2.181c0.808-0.548,1.717-0.962,2.729-1.243c0.745-0.196,1.868-0.387,3.371-0.568
		c3.062-0.366,5.316-0.801,6.765-1.307c0.014-0.52,0.02-0.85,0.02-0.991c0-1.544-0.356-2.633-1.074-3.266
		c-0.968-0.856-2.409-1.285-4.32-1.285c-1.783,0-3.101,0.313-3.949,0.938c-0.851,0.625-1.479,1.731-1.886,3.319l-3.708-0.506
		c0.337-1.588,0.892-2.869,1.664-3.846c0.771-0.976,1.89-1.728,3.35-2.255c1.46-0.526,3.153-0.79,5.078-0.79
		c1.909,0,3.462,0.225,4.657,0.675c1.194,0.449,2.072,1.015,2.633,1.696c0.563,0.681,0.956,1.541,1.18,2.581
		c0.128,0.646,0.19,1.812,0.19,3.497v5.057c0,3.526,0.08,5.757,0.243,6.691c0.16,0.934,0.479,1.829,0.958,2.687h-3.961
		C481.588,432.683,481.335,431.762,481.224,430.709z M480.908,422.239c-1.378,0.563-3.442,1.039-6.196,1.433
		c-1.558,0.226-2.661,0.479-3.309,0.759c-0.645,0.281-1.145,0.692-1.495,1.232c-0.351,0.541-0.527,1.142-0.527,1.802
		c0,1.011,0.382,1.854,1.148,2.528c0.767,0.674,1.886,1.012,3.361,1.012c1.461,0,2.76-0.319,3.899-0.959
		c1.137-0.639,1.972-1.513,2.507-2.623c0.407-0.857,0.611-2.121,0.611-3.792V422.239z"/>
	<path fill="#030303" d="M505.223,425.273l3.73,0.484c-0.407,2.571-1.452,4.583-3.13,6.037s-3.74,2.181-6.185,2.181
		c-3.062,0-5.523-1-7.386-3.003c-1.862-2.001-2.791-4.87-2.791-8.606c0-2.417,0.4-4.53,1.201-6.343
		c0.8-1.813,2.02-3.172,3.656-4.077c1.635-0.906,3.416-1.359,5.341-1.359c2.431,0,4.418,0.614,5.963,1.844
		c1.544,1.229,2.536,2.975,2.972,5.236l-3.688,0.569c-0.353-1.503-0.974-2.635-1.866-3.393c-0.892-0.759-1.97-1.138-3.233-1.138
		c-1.911,0-3.464,0.685-4.657,2.054c-1.194,1.37-1.79,3.537-1.79,6.501c0,3.006,0.574,5.19,1.727,6.553
		c1.153,1.362,2.656,2.044,4.511,2.044c1.487,0,2.73-0.457,3.728-1.37C504.323,428.575,504.956,427.17,505.223,425.273z"/>
	<path fill="#030303" d="M512.219,406.942v-4.362h3.793v4.362H512.219z M512.219,433.47v-22.378h3.793v22.378H512.219z"/>
	<path fill="#030303" d="M521.699,433.47V402.58h3.793v30.891H521.699z"/>
	<path fill="#030303" d="M531.393,406.942v-4.362h3.792v4.362H531.393z M531.393,433.47v-22.378h3.792v22.378H531.393z"/>
	<path fill="#030303" d="M549.239,430.077l0.547,3.351c-1.066,0.225-2.023,0.338-2.866,0.338c-1.376,0-2.444-0.218-3.202-0.654
		c-0.759-0.435-1.292-1.007-1.602-1.717c-0.308-0.709-0.463-2.201-0.463-4.477v-12.875h-2.781v-2.95h2.781v-5.542l3.771-2.275v7.817
		h3.814v2.95h-3.814v13.084c0,1.082,0.066,1.778,0.199,2.087c0.134,0.309,0.352,0.555,0.653,0.738
		c0.302,0.182,0.735,0.273,1.298,0.273C547.996,430.225,548.551,430.175,549.239,430.077z"/>
	<path fill="#030303" d="M552.779,442.088l-0.422-3.562c0.829,0.225,1.553,0.337,2.17,0.337c0.843,0,1.517-0.14,2.022-0.421
		s0.922-0.675,1.245-1.181c0.237-0.379,0.623-1.319,1.158-2.823c0.07-0.211,0.183-0.52,0.337-0.927l-8.491-22.42h4.087l4.657,12.959
		c0.604,1.643,1.145,3.371,1.623,5.183c0.436-1.741,0.955-3.44,1.559-5.098l4.782-13.044h3.793l-8.513,22.757
		c-0.913,2.458-1.621,4.15-2.127,5.077c-0.674,1.251-1.448,2.167-2.318,2.75s-1.911,0.875-3.118,0.875
		C554.492,442.551,553.679,442.397,552.779,442.088z"/>
</g>
</svg>
